<svg xmlns="http://www.w3.org/2000/svg" viewBox="0 0 16 208"><desc>Octicons v12.1.0 by GitHub - https://primer.style/octicons/ - License: MIT</desc><symbol id="icon-alert" viewBox="0 0 16 16"><path fill-rule="evenodd" d="M8.22 1.754a.25.25 0 00-.44 0L1.698 13.132a.25.25 0 00.22.368h12.164a.25.25 0 00.22-.368L8.22 1.754zm-1.763-.707c.659-1.234 2.427-1.234 3.086 0l6.082 11.378A1.75 1.75 0 0114.082 15H1.918a1.75 1.75 0 01-1.543-2.575L6.457 1.047zM9 11a1 1 0 11-2 0 1 1 0 012 0zm-.25-5.25a.75.75 0 00-1.5 0v2.5a.75.75 0 001.5 0v-2.5z"/></symbol><symbol id="icon-chevron-left" viewBox="0 0 16 16"><path fill-rule="evenodd" d="M9.78 12.78a.75.75 0 01-1.06 0L4.47 8.53a.75.75 0 010-1.06l4.25-4.25a.75.75 0 011.06 1.06L6.06 8l3.72 3.72a.75.75 0 010 1.06z"/></symbol><symbol id="icon-clippy" viewBox="0 0 16 16"><path fill-rule="evenodd" d="M5.75 1a.75.75 0 00-.75.75v3c0 .414.336.75.75.75h4.5a.75.75 0 00.75-.75v-3a.75.75 0 00-.75-.75h-4.5zm.75 3V2.5h3V4h-3zm-2.874-.467a.75.75 0 00-.752-1.298A1.75 1.75 0 002 3.75v9.5c0 .966.784 1.75 1.75 1.75h8.5A1.75 1.75 0 0014 13.25v-9.5a1.75 1.75 0 00-.874-1.515.75.75 0 10-.752 1.298.25.25 0 01.126.217v9.5a.25.25 0 01-.25.25h-8.5a.25.25 0 01-.25-.25v-9.5a.25.25 0 01.126-.217z"/></symbol><symbol id="icon-flame" viewBox="0 0 16 16"><path fill-rule="evenodd" d="M7.998 14.5c2.832 0 5-1.98 5-4.5 0-1.463-.68-2.19-1.879-3.383l-.036-.037c-1.013-1.008-2.3-2.29-2.834-4.434-.322.256-.63.579-.864.953-.432.696-.621 1.58-.046 2.73.473.947.67 2.284-.278 3.232-.61.61-1.545.84-2.403.633a2.788 2.788 0 01-1.436-.874A3.21 3.21 0 003 10c0 2.53 2.164 4.5 4.998 4.5zM9.533.753C9.496.34 9.16.009 8.77.146 7.035.75 4.34 3.187 5.997 6.5c.344.689.285 1.218.003 1.5-.419.419-1.54.487-2.04-.832-.173-.454-.659-.762-1.035-.454C2.036 7.44 1.5 8.702 1.5 10c0 3.512 2.998 6 6.498 6s6.5-2.5 6.5-6c0-2.137-1.128-3.26-2.312-4.438-1.19-1.184-2.436-2.425-2.653-4.81z"/></symbol><symbol id="icon-fold" viewBox="0 0 16 16"><path d="M10.896 2H8.75V.75a.75.75 0 00-1.5 0V2H5.104a.25.25 0 00-.177.427l2.896 2.896a.25.25 0 00.354 0l2.896-2.896A.25.25 0 0010.896 2zM8.75 15.25a.75.75 0 01-1.5 0V14H5.104a.25.25 0 01-.177-.427l2.896-2.896a.25.25 0 01.354 0l2.896 2.896a.25.25 0 01-.177.427H8.75v1.25zm-6.5-6.5a.75.75 0 000-1.5h-.5a.75.75 0 000 1.5h.5zM6 8a.75.75 0 01-.75.75h-.5a.75.75 0 010-1.5h.5A.75.75 0 016 8zm2.25.75a.75.75 0 000-1.5h-.5a.75.75 0 000 1.5h.5zM12 8a.75.75 0 01-.75.75h-.5a.75.75 0 010-1.5h.5A.75.75 0 0112 8zm2.25.75a.75.75 0 000-1.5h-.5a.75.75 0 000 1.5h.5z"/></symbol><symbol id="icon-info" viewBox="0 0 16 16"><path fill-rule="evenodd" d="M8 1.5a6.5 6.5 0 100 13 6.5 6.5 0 000-13zM0 8a8 8 0 1116 0A8 8 0 010 8zm6.5-.25A.75.75 0 017.25 7h1a.75.75 0 01.75.75v2.75h.25a.75.75 0 010 1.5h-2a.75.75 0 010-1.5h.25v-2h-.25a.75.75 0 01-.75-.75zM8 6a1 1 0 100-2 1 1 0 000 2z"/></symbol><symbol id="icon-light-bulb" viewBox="0 0 16 16"><path fill-rule="evenodd" d="M8 1.5c-2.363 0-4 1.69-4 3.75 0 .984.424 1.625.984 2.304l.214.253c.223.264.47.556.673.848.284.411.537.896.621 1.49a.75.75 0 01-1.484.211c-.04-.282-.163-.547-.37-.847a8.695 8.695 0 00-.542-.68c-.084-.1-.173-.205-.268-.32C3.201 7.75 2.5 6.766 2.5 5.25 2.5 2.31 4.863 0 8 0s5.5 2.31 5.5 5.25c0 1.516-.701 2.5-1.328 3.259-.095.115-.184.22-.268.319-.207.245-.383.453-.541.681-.208.3-.33.565-.37.847a.75.75 0 01-1.485-.212c.084-.593.337-1.078.621-1.489.203-.292.45-.584.673-.848.075-.088.147-.173.213-.253.561-.679.985-1.32.985-2.304 0-2.06-1.637-3.75-4-3.75zM6 15.25a.75.75 0 01.75-.75h2.5a.75.75 0 010 1.5h-2.5a.75.75 0 01-.75-.75zM5.75 12a.75.75 0 000 1.5h4.5a.75.75 0 000-1.5h-4.5z"/></symbol><symbol id="icon-moon" viewBox="0 0 16 16"><path fill-rule="evenodd" d="M9.598 1.591a.75.75 0 01.785-.175 7 7 0 11-8.967 8.967.75.75 0 01.961-.96 5.5 5.5 0 007.046-7.046.75.75 0 01.175-.786zm1.616 1.945a7 7 0 01-7.678 7.678 5.5 5.5 0 107.678-7.678z"/></symbol><symbol id="icon-stop" viewBox="0 0 16 16"><path fill-rule="evenodd" d="M4.47.22A.75.75 0 015 0h6a.75.75 0 01.53.22l4.25 4.25c.141.14.22.331.22.53v6a.75.75 0 01-.22.53l-4.25 4.25A.75.75 0 0111 16H5a.75.75 0 01-.53-.22L.22 11.53A.75.75 0 010 11V5a.75.75 0 01.22-.53L4.47.22zm.84 1.28L1.5 5.31v5.38l3.81 3.81h5.38l3.81-3.81V5.31L10.69 1.5H5.31zM8 4a.75.75 0 01.75.75v3.5a.75.75 0 01-1.5 0v-3.5A.75.75 0 018 4zm0 8a1 1 0 100-2 1 1 0 000 2z"/></symbol><symbol id="icon-sun" viewBox="0 0 16 16"><path fill-rule="evenodd" d="M8 10.5a2.5 2.5 0 100-5 2.5 2.5 0 000 5zM8 12a4 4 0 100-8 4 4 0 000 8zM8 0a.75.75 0 01.75.75v1.5a.75.75 0 01-1.5 0V.75A.75.75 0 018 0zm0 13a.75.75 0 01.75.75v1.5a.75.75 0 01-1.5 0v-1.5A.75.75 0 018 13zM2.343 2.343a.75.75 0 011.061 0l1.06 1.061a.75.75 0 01-1.06 1.06l-1.06-1.06a.75.75 0 010-1.06zm9.193 9.193a.75.75 0 011.06 0l1.061 1.06a.75.75 0 01-1.06 1.061l-1.061-1.06a.75.75 0 010-1.061zM16 8a.75.75 0 01-.75.75h-1.5a.75.75 0 010-1.5h1.5A.75.75 0 0116 8zM3 8a.75.75 0 01-.75.75H.75a.75.75 0 010-1.5h1.5A.75.75 0 013 8zm10.657-5.657a.75.75 0 010 1.061l-1.061 1.06a.75.75 0 11-1.06-1.06l1.06-1.06a.75.75 0 011.06 0zm-9.193 9.193a.75.75 0 010 1.06l-1.06 1.061a.75.75 0 11-1.061-1.06l1.06-1.061a.75.75 0 011.061 0z"/></symbol><symbol id="icon-three-bars" viewBox="0 0 16 16"><path fill-rule="evenodd" d="M1 2.75A.75.75 0 011.75 2h12.5a.75.75 0 110 1.5H1.75A.75.75 0 011 2.75zm0 5A.75.75 0 011.75 7h12.5a.75.75 0 110 1.5H1.75A.75.75 0 011 7.75zM1.75 12a.75.75 0 100 1.5h12.5a.75.75 0 100-1.5H1.75z"/></symbol><symbol id="icon-unfold" viewBox="0 0 16 16"><path d="M8.177.677l2.896 2.896a.25.25 0 01-.177.427H8.75v1.25a.75.75 0 01-1.5 0V4H5.104a.25.25 0 01-.177-.427L7.823.677a.25.25 0 01.354 0zM7.25 10.75a.75.75 0 011.5 0V12h2.146a.25.25 0 01.177.427l-2.896 2.896a.25.25 0 01-.354 0l-2.896-2.896A.25.25 0 015.104 12H7.25v-1.25zm-5-2a.75.75 0 000-1.5h-.5a.75.75 0 000 1.5h.5zM6 8a.75.75 0 01-.75.75h-.5a.75.75 0 010-1.5h.5A.75.75 0 016 8zm2.25.75a.75.75 0 000-1.5h-.5a.75.75 0 000 1.5h.5zM12 8a.75.75 0 01-.75.75h-.5a.75.75 0 010-1.5h.5A.75.75 0 0112 8zm2.25.75a.75.75 0 000-1.5h-.5a.75.75 0 000 1.5h.5z"/></symbol><symbol id="icon-x" viewBox="0 0 16 16"><path fill-rule="evenodd" d="M3.72 3.72a.75.75 0 011.06 0L8 6.94l3.22-3.22a.75.75 0 111.06 1.06L9.06 8l3.22 3.22a.75.75 0 11-1.06 1.06L8 9.06l-3.22 3.22a.75.75 0 01-1.06-1.06L6.94 8 3.72 4.78a.75.75 0 010-1.06z"/></symbol><use width="16" height="16" href="#icon-alert"/><use width="16" height="16" y="16" href="#icon-chevron-left"/><use width="16" height="16" y="32" href="#icon-clippy"/><use width="16" height="16" y="48" href="#icon-flame"/><use width="16" height="16" y="64" href="#icon-fold"/><use width="16" height="16" y="80" href="#icon-info"/><use width="16" height="16" y="96" href="#icon-light-bulb"/><use width="16" height="16" y="112" href="#icon-moon"/><use width="16" height="16" y="128" href="#icon-stop"/><use width="16" height="16" y="144" href="#icon-sun"/><use width="16" height="16" y="160" href="#icon-three-bars"/><use width="16" height="16" y="176" href="#icon-unfold"/><use width="16" height="16" y="192" href="#icon-x"/><view viewBox="0 0 16 16" id="view-alert"/><view viewBox="0 16 16 16" id="view-chevron-left"/><view viewBox="0 32 16 16" id="view-clippy"/><view viewBox="0 48 16 16" id="view-flame"/><view viewBox="0 64 16 16" id="view-fold"/><view viewBox="0 80 16 16" id="view-info"/><view viewBox="0 96 16 16" id="view-light-bulb"/><view viewBox="0 112 16 16" id="view-moon"/><view viewBox="0 128 16 16" id="view-stop"/><view viewBox="0 144 16 16" id="view-sun"/><view viewBox="0 160 16 16" id="view-three-bars"/><view viewBox="0 176 16 16" id="view-unfold"/><view viewBox="0 192 16 16" id="view-x"/></svg>