<svg xmlns="http://www.w3.org/2000/svg" viewBox="0 0 377.5 97.1"><path d="M88.5 5.7c-1.3 3.2-3.1 6.3-5.2 9.1C64.7-4.5 34-5 14.8 13.6S-5 62.9 13.6 82.1c.6.7 1.3 1.3 2 1.9l1.8 1.6c20.4 17.2 51 14.6 68.2-5.8C92.2 72 96.2 62.2 96.9 52c1.4-12.1-2.3-27.7-8.4-46.3zM22.6 84.5c-1.4 1.8-4 2-5.8.6s-2-4-.6-5.8 4-2 5.8-.6c1.7 1.4 2 4 .6 5.8zM88.2 70C76.3 85.9 50.7 80.5 34.4 81.3c0 0-2.9.2-5.8.6 0 0 1.1-.5 2.5-1 11.5-4 16.9-4.8 23.9-8.4 13.1-6.7 26.2-21.4 28.8-36.6-5 14.6-20.2 27.2-34 32.3-9.5 3.5-26.6 6.9-26.6 6.9l-.7-.4c-11.6-5.7-12-30.9 9.2-39 9.3-3.6 18.1-1.6 28.2-4C70.6 29.2 83 21.2 88 10.7c5.6 16.9 12.4 43.1.2 59.3zm36.2-2.4c-1.3-.8-2.1-2.2-2-3.7 0-2.4 1.9-4.4 4.3-4.4h.1c.8 0 1.6.2 2.3.6 4 2.8 8.7 4.3 13.5 4.5 4.6 0 7.3-2 7.3-5.1v-.2c0-3.7-5-4.9-10.5-6.6-6.9-2-14.7-4.8-14.7-13.8v-.2c0-8.9 7.4-14.3 16.7-14.3 5.2.1 10.2 1.4 14.8 3.8 1.6.8 2.6 2.3 2.6 4.1 0 2.4-2 4.4-4.4 4.4h-.1c-.7 0-1.4-.2-2.1-.5-3.4-1.9-7.1-3-11-3.2-4.2 0-6.6 2-6.6 4.6v.2c0 3.5 5.1 4.9 10.6 6.7 6.9 2.1 14.6 5.3 14.6 13.7v.2c0 9.9-7.7 14.8-17.4 14.8-6.4-.1-12.7-2-18-5.6zm39.4-37.7c-.1-2.9 2.3-5.3 5.2-5.4h.1c3 0 5.4 2.4 5.4 5.4v3.2c3.5-4.9 8.4-8.8 16-8.8 11 0 21.8 8.7 21.8 24.4v.2c0 15.6-10.7 24.4-21.8 24.4-7.8 0-12.7-3.9-16-8.3v16.6c0 3-2.4 5.4-5.4 5.4-2.9 0-5.3-2.4-5.3-5.3V29.9zm37.7 19v-.2c0-9.1-6.1-15-13.4-15s-13.7 6.1-13.7 15v.2c0 9 6.4 15 13.7 15s13.4-5.7 13.4-15zm15-19c-.1-2.9 2.3-5.3 5.2-5.4h.1c3 0 5.4 2.4 5.4 5.4v2.6c.5-4 7.1-8 11.8-8 2.7-.2 5.1 1.8 5.3 4.5v.8c0 2.6-1.8 4.8-4.3 5.2-7.7 1.3-12.9 8-12.9 17.3v15.5c0 3-2.4 5.3-5.4 5.3-2.9 0-5.3-2.3-5.3-5.2v-.1l.1-37.9zm32.1.1c-.1-2.9 2.3-5.3 5.2-5.4h.1c3 0 5.4 2.4 5.4 5.4v37.9c0 3-2.4 5.3-5.4 5.3s-5.3-2.4-5.3-5.3V30zm16.2 0c-.1-2.9 2.3-5.3 5.2-5.4h.1c3 0 5.4 2.4 5.4 5.4v2.2c3.2-5 8.8-7.9 14.7-7.7 10.6 0 16.7 7.1 16.7 18v25.3c.1 2.9-2.2 5.2-5.1 5.3h-.2c-2.9.1-5.3-2.3-5.4-5.2V45.8c0-7.3-3.6-11.5-10.1-11.5-6.2 0-10.6 4.4-10.6 11.7v21.9c0 3-2.4 5.4-5.4 5.4s-5.4-2.4-5.4-5.4l.1-37.9zm89.5-5.6c-3 0-5.4 2.4-5.4 5.4V33c-3.5-4.9-8.4-8.8-16-8.8-11 0-21.8 8.7-21.8 24.4v.2c0 15.6 10.7 24.4 21.8 24.4 7.8 0 12.7-3.9 16-8.2-.5 8.5-5.7 12.9-14.8 12.9-5 0-10-1.2-14.4-3.7-.6-.3-1.2-.4-1.9-.4-2.5 0-4.5 1.9-4.6 4.4 0 1.9 1.2 3.7 3 4.3 5.7 2.8 11.9 4.2 18.2 4.2 8.5 0 15.1-2 19.3-6.3 3.9-3.9 6-9.8 6-17.7V29.9c.1-3-2.3-5.4-5.3-5.5h-.1zm-18.9 39.5c-7.4 0-13.4-5.8-13.4-15.1v-.2c0-9.1 6.1-15 13.4-15s13.7 6.1 13.7 15v.2c.1 9-6.3 15.1-13.7 15.1zm-76-52.3c0 3-2.4 5.4-5.4 5.4s-5.4-2.4-5.4-5.4 2.4-5.4 5.4-5.4c2.9-.1 5.3 2.3 5.4 5.2v.2zM372 35.7c-3 0-5.5-2.5-5.5-5.5s2.5-5.5 5.5-5.5 5.5 2.5 5.5 5.5-2.5 5.5-5.5 5.5zm0-10.2c-2.6 0-4.7 2.1-4.7 4.7s2.1 4.7 4.7 4.7 4.7-2.1 4.7-4.7-2-4.7-4.6-4.7h-.1zm1.5 7.8l-1.6-2.5h-1.1v2.5h-.9V27h2.6c1.1-.1 2 .8 2.1 1.9 0 .9-.7 1.7-1.6 1.9l1.7 2.5h-1.2zm-1.1-5.5h-1.6V30h1.7c.6 0 1.1-.5 1.1-1.1s-.5-1.1-1.2-1.1zm-286.8 52C92.2 72 96.2 62.2 96.9 52" fill="#6db33f"/><path d="M88.2 70C76.3 85.9 50.7 80.5 34.4 81.3c0 0-2.9.2-5.8.6 0 0 1.1-.5 2.5-1 11.5-4 16.9-4.8 23.9-8.4 13.1-6.7 26.2-21.4 28.8-36.6-5 14.6-20.2 27.2-34 32.3-9.5 3.5-26.6 6.9-26.6 6.9l-.7-.4c-11.6-5.7-12-30.9 9.2-39 9.3-3.6 18.1-1.6 28.2-4C70.6 29.2 83 21.2 88 10.7c5.6 16.9 12.4 43.1.2 59.3zM22.6 84.5c-1.4 1.8-4 2-5.8.6s-2-4-.6-5.8 4-2 5.8-.6c1.7 1.4 2 4 .6 5.8z" fill="#fff"/></svg>